<?xml version="1.0" standalone="no"?>
<!DOCTYPE svg PUBLIC "-//W3C//DTD SVG 20010904//EN"
 "http://www.w3.org/TR/2001/REC-SVG-20010904/DTD/svg10.dtd">
<svg version="1.0" xmlns="http://www.w3.org/2000/svg"
 width="500.000000pt" height="500.000000pt" viewBox="0 0 500.000000 500.000000"
 preserveAspectRatio="xMidYMid meet">

<g transform="translate(0.000000,500.000000) scale(0.100000,-0.100000)"
fill="#000000" stroke="none">
<path d="M0 2500 l0 -2500 2500 0 2500 0 0 2500 0 2500 -2500 0 -2500 0 0
-2500z m3195 1765 c135 -36 244 -130 319 -275 94 -181 116 -368 62 -525 -15
-44 -37 -96 -49 -115 -76 -126 -199 -240 -328 -306 -77 -38 -74 -30 -60 -149
6 -44 12 -123 15 -175 l6 -95 -30 145 c-31 143 -78 300 -120 393 -28 63 -83
117 -118 117 -33 0 -172 -46 -373 -123 -205 -79 -298 -101 -434 -100 -120 1
-225 19 -295 52 -25 12 -34 19 -20 16 109 -22 203 -28 300 -16 129 14 232 49
434 145 351 168 445 177 542 49 20 -26 37 -65 45 -100 7 -32 16 -62 20 -67 12
-13 107 53 173 118 68 68 111 130 144 209 23 54 26 75 26 167 -1 93 -4 115
-33 193 -93 248 -255 339 -495 277 -174 -44 -323 -137 -538 -333 -148 -136
-282 -236 -378 -284 -71 -36 -80 -38 -170 -38 -82 0 -103 4 -152 27 -32 15
-74 39 -93 54 -40 30 -100 102 -92 110 3 3 22 -3 44 -14 70 -36 176 -63 246
-64 124 0 203 51 464 303 210 203 326 287 487 354 151 62 327 82 451 50z
m-1534 -290 c105 -20 139 -30 213 -66 56 -28 143 -92 101 -74 -172 69 -373 71
-506 5 -83 -42 -161 -118 -190 -183 -28 -64 -37 -199 -20 -290 7 -34 33 -105
58 -157 36 -75 60 -108 112 -160 55 -53 199 -153 209 -145 6 5 -42 143 -78
226 -21 49 -36 89 -34 89 10 0 94 -140 142 -235 27 -55 62 -136 78 -180 15
-44 28 -81 29 -83 1 -1 31 10 66 26 76 34 257 95 349 117 90 22 364 31 471 16
94 -14 252 -51 245 -58 -2 -3 -29 0 -60 7 -96 20 -257 28 -381 18 -179 -13
-371 -69 -565 -166 l-95 -47 3 -70 c1 -38 4 -71 6 -73 2 -2 32 11 66 28 108
55 238 100 369 127 115 25 144 27 341 26 152 -1 234 -5 280 -16 l65 -15 -118
-1 c-361 -3 -614 -71 -950 -253 -82 -44 -151 -77 -155 -74 -3 4 -9 89 -13 189
-7 160 -19 271 -30 281 -2 2 -40 18 -83 36 -183 76 -314 196 -395 362 -78 159
-99 309 -65 458 36 158 163 293 314 334 72 19 120 19 221 1z m-373 -1757 c7
-7 12 -21 12 -33 0 -29 -19 -45 -52 -45 -36 0 -56 36 -39 69 13 23 59 29 79 9z
m1460 0 c7 -7 12 -21 12 -33 0 -29 -19 -45 -52 -45 -36 0 -56 36 -39 69 13 23
59 29 79 9z m-1640 -14 c12 -8 22 -24 22 -36 0 -11 -29 -62 -65 -114 l-66 -94
48 0 c78 0 115 -39 76 -82 -14 -15 -32 -18 -120 -18 -57 0 -113 5 -124 10 -32
18 -22 56 41 150 33 49 60 92 60 95 0 3 -18 5 -41 5 -53 0 -79 15 -79 45 0 41
34 55 135 55 66 0 97 -4 113 -16z m2057 -8 c19 -29 8 -61 -25 -71 -29 -9 -26
-49 5 -69 15 -10 25 -26 25 -41 0 -15 -10 -31 -25 -41 -22 -15 -25 -23 -25
-79 0 -48 -5 -68 -20 -88 -24 -31 -83 -46 -105 -27 -23 19 -18 57 10 76 21 14
25 24 25 64 0 32 -5 50 -14 53 -8 3 -20 15 -26 27 -9 17 -7 24 15 46 17 17 25
36 25 62 1 45 19 80 51 98 37 20 67 17 84 -10z m949 8 c22 -21 23 -219 2 -269
-22 -51 -69 -77 -130 -72 -42 4 -55 10 -83 41 -28 30 -33 43 -33 86 0 43 5 56
33 86 26 29 42 37 79 41 43 5 46 7 51 40 10 60 47 82 81 47z m-2641 -34 c9
-25 17 -30 44 -30 32 0 73 -28 73 -50 0 -23 -41 -50 -75 -50 -33 0 -35 -2 -35
-34 0 -44 22 -64 54 -47 39 21 71 11 74 -25 4 -40 -25 -65 -82 -71 -59 -7
-108 22 -130 77 -22 56 -22 222 0 244 27 27 64 20 77 -14z m-183 -69 c5 -11
10 -61 10 -111 0 -101 -10 -130 -43 -130 -45 0 -52 14 -55 115 -3 76 -1 101
12 120 20 30 61 33 76 6z m597 -25 c28 -30 33 -43 33 -86 0 -43 -5 -56 -33
-86 -28 -30 -42 -37 -83 -41 -65 -6 -113 24 -134 85 -13 37 -13 47 0 84 21 61
69 91 134 85 41 -4 55 -11 83 -41z m187 22 c10 -14 16 -44 16 -79 0 -59 12
-75 45 -63 11 5 15 22 15 66 0 75 12 98 50 98 38 0 50 -23 50 -95 0 -72 -20
-119 -62 -145 -62 -38 -141 -19 -178 43 -23 37 -28 165 -8 185 19 19 55 14 72
-10z m436 7 c55 -28 70 -60 70 -144 0 -79 -9 -101 -41 -101 -32 0 -49 29 -49
83 0 56 -6 71 -30 79 -34 12 -50 -10 -50 -72 0 -62 -15 -90 -50 -90 -50 0 -67
109 -30 186 33 67 113 93 180 59z m240 -4 c5 -11 10 -61 10 -111 0 -101 -10
-130 -43 -130 -45 0 -52 14 -55 115 -3 76 -1 101 12 120 20 30 61 33 76 6z
m707 -25 c28 -30 33 -43 33 -86 0 -43 -5 -56 -33 -86 -28 -30 -42 -37 -83 -41
-65 -6 -113 24 -134 85 -13 37 -13 47 0 84 21 61 69 91 134 85 41 -4 55 -11
83 -41z m284 29 c117 -61 71 -245 -61 -245 -68 0 -130 61 -130 128 0 98 104
161 191 117z m-1941 -532 l0 -58 -34 -2 c-40 -3 -61 17 -52 51 7 29 41 43 61
26 13 -10 15 -8 15 14 0 14 2 26 5 26 3 0 5 -26 5 -57z m-223 21 c15 -24 15
-29 2 -53 -28 -49 -99 -32 -99 24 0 55 67 75 97 29z m756 19 c-15 -3 -23 -12
-23 -24 0 -13 7 -19 23 -20 l22 -2 -22 -4 c-14 -3 -23 -12 -23 -23 0 -11 9
-20 23 -23 19 -4 18 -4 -5 -6 -27 -1 -28 0 -28 54 0 54 1 55 28 54 23 -2 24
-2 5 -6z m226 -21 c-14 -5 -11 -70 4 -75 7 -4 6 -6 -4 -6 -13 -1 -18 10 -21
44 -4 56 0 68 17 52 7 -7 9 -13 4 -15z m361 13 c10 -13 10 -19 -3 -33 -12 -13
-13 -22 -5 -35 5 -10 8 -20 6 -23 -3 -2 -11 7 -18 21 -17 32 -28 32 -33 -2 -2
-16 -5 -2 -6 30 -1 54 0 57 23 57 13 0 29 -7 36 -15z m589 -13 c-12 -5 -11
-69 1 -75 6 -3 5 -4 -2 -3 -7 1 -15 21 -18 43 -8 51 -3 66 15 50 7 -7 9 -13 4
-15z m-1852 -9 c-8 -10 -17 -31 -20 -48 -3 -24 -4 -22 -6 12 -1 32 3 43 17 46
9 3 19 5 21 6 2 0 -3 -7 -12 -16z m257 1 c25 -25 19 -34 -24 -34 -31 0 -38 -3
-34 -15 7 -17 50 -20 57 -5 3 6 4 5 3 -2 -4 -21 -48 -22 -63 -2 -7 10 -13 23
-13 30 0 17 28 44 45 44 7 0 21 -7 29 -16z m82 1 c-8 -6 -16 -27 -19 -46 -3
-30 -4 -29 -5 11 -2 40 1 46 19 46 17 0 18 -2 5 -11z m484 -31 c0 -43 -8 -48
-57 -38 -17 3 -23 11 -23 32 0 36 16 51 51 49 27 -2 29 -5 29 -43z m558 34
c23 -23 13 -38 -23 -38 -19 0 -35 -5 -35 -10 0 -18 32 -24 54 -10 19 12 20 12
7 -3 -26 -32 -71 -14 -71 28 0 25 18 45 40 45 9 0 21 -5 28 -12z m130 0 c6 -6
12 -23 12 -39 0 -22 -6 -30 -24 -35 -14 -3 -29 -3 -35 0 -5 4 -12 -6 -14 -21
-2 -16 -5 1 -5 37 -2 64 -2 65 26 67 15 1 33 -3 40 -9z m126 -4 c25 -24 19
-34 -20 -34 -24 0 -34 -4 -31 -12 2 -7 16 -13 30 -13 16 1 23 -3 18 -8 -5 -5
-21 -7 -35 -3 -20 5 -26 13 -26 34 0 48 34 67 64 36z m88 4 c-33 -16 -27 -63
8 -63 22 0 25 4 25 33 0 17 3 32 7 32 5 0 8 -17 8 -38 0 -33 -3 -38 -26 -40
-33 -3 -54 14 -54 42 0 26 18 46 40 45 10 0 7 -4 -8 -11z"/>
<path d="M3976 2014 c-21 -20 -20 -41 1 -53 23 -12 53 4 53 29 0 29 -35 44
-54 24z"/>
<path d="M1777 2019 c-21 -12 -22 -42 -3 -58 20 -16 56 3 56 29 0 25 -30 41
-53 29z"/>
<path d="M3347 2019 c-21 -12 -22 -42 -3 -58 20 -16 56 3 56 29 0 25 -30 41
-53 29z"/>
<path d="M3651 2006 c-13 -16 -6 -42 15 -50 31 -12 60 18 48 49 -8 19 -48 20
-63 1z"/>
<path d="M1731 1576 c-17 -20 -4 -56 18 -56 28 0 47 28 34 48 -14 23 -37 26
-52 8z"/>
<path d="M1502 1598 c-7 -7 -12 -21 -12 -33 0 -47 62 -63 81 -21 22 47 -33 90
-69 54z"/>
<path d="M2870 1590 c0 -16 5 -21 23 -18 12 2 22 10 22 18 0 8 -10 16 -22 18
-18 3 -23 -2 -23 -18z"/>
<path d="M1860 1575 c-11 -13 -7 -15 25 -15 32 0 36 2 25 15 -7 8 -18 15 -25
15 -7 0 -18 -7 -25 -15z"/>
<path d="M2414 1576 c-11 -29 1 -51 26 -51 19 0 26 6 28 24 5 35 -42 58 -54
27z"/>
<path d="M2987 1584 c-15 -15 -6 -24 24 -24 20 0 29 4 27 13 -5 14 -40 21 -51
11z"/>
<path d="M3122 1581 c-8 -4 -12 -19 -10 -32 2 -18 9 -24 28 -24 21 0 25 5 25
30 0 31 -19 42 -43 26z"/>
<path d="M3247 1583 c-15 -14 -6 -23 24 -23 27 0 30 2 19 15 -13 16 -32 19
-43 8z"/>
</g>
</svg>
